HIERARCHY
ROOT Hips
{
	OFFSET 0.00000 0.00000 0.00000
	CHANNELS 6 Xposition Yposition Zposition Zrotation Yrotation Xrotation 
	JOINT LHipJoint
	{
		OFFSET 0 0 0
		CHANNELS 3 Zrotation Yrotation Xrotation
		JOINT LeftHip
		{
			OFFSET 1.62964 -1.40469 0.78906
			CHANNELS 3 Zrotation Yrotation Xrotation
			JOINT LeftKnee
			{
				OFFSET 2.29640 -6.30932 0.00000
				CHANNELS 3 Zrotation Yrotation Xrotation
				JOINT LeftAnkle
				{
					OFFSET 2.29451 -6.30412 0.00000
					CHANNELS 3 Zrotation Yrotation Xrotation
					JOINT LeftToe
					{
						OFFSET 0.03611 -0.09921 1.56387
						CHANNELS 3 Zrotation Yrotation Xrotation
						End Site
						{
							OFFSET 0.00000 -0.00000 0.80291
						}
					}
				}
			}
		}
	}
	JOINT RHipJoint
	{
		OFFSET 0 0 0
		CHANNELS 3 Zrotation Yrotation Xrotation
		JOINT RightHip
		{
			OFFSET -1.73712 -1.40469 0.78906
			CHANNELS 3 Zrotation Yrotation Xrotation
			JOINT RightKnee
			{
				OFFSET -2.28137 -6.26801 0.00000
				CHANNELS 3 Zrotation Yrotation Xrotation
				JOINT RightAnkle
				{
					OFFSET -2.28681 -6.28298 0.00000
					CHANNELS 3 Zrotation Yrotation Xrotation
					JOINT RightToe
					{
						OFFSET -0.15927 -0.43759 1.61103
						CHANNELS 3 Zrotation Yrotation Xrotation
						End Site
						{
							OFFSET -0.00000 -0.00000 0.84630
						}
					}
				}
			}
		}
	}
	JOINT lowerback
	{
		OFFSET 0 0 0
		CHANNELS 3 Zrotation Yrotation Xrotation
		JOINT Chest
		{
			OFFSET -0.04227 2.04338 -0.00225
			CHANNELS 3 Zrotation Yrotation Xrotation
			JOINT Chest2
			{
				OFFSET -0.02148 2.04482 -0.04273
				CHANNELS 3 Zrotation Yrotation Xrotation
				JOINT lowerneck
				{
					OFFSET 0 0 0
					CHANNELS 3 Zrotation Yrotation Xrotation
					JOINT Neck
					{
						OFFSET 0.09180 1.44629 0.19359
						CHANNELS 3 Zrotation Yrotation Xrotation
						JOINT Head
						{
							OFFSET 0.00887 1.40645 0.14750
							CHANNELS 3 Zrotation Yrotation Xrotation
							End Site
							{
								OFFSET -0.00669 1.50671 0.03707
							}
						}
					}
				}
				JOINT LeftCollar
				{
					OFFSET 0 0 0
					CHANNELS 3 Zrotation Yrotation Xrotation
					JOINT LeftShoulder
					{
						OFFSET 2.17674 1.86763 -0.06520
CHANNELS 3 Zrotation Xrotation Yrotation
						JOINT LeftElbow
						{
OFFSET 0 -4.657760 0.000000
CHANNELS 3 Zrotation Xrotation Yrotation
							JOINT LeftWrist
							{
OFFSET 0 -3.555390 0.000000
CHANNELS 3 Zrotation Xrotation Yrotation
								JOINT lhand
								{
									OFFSET 0 0 0
CHANNELS 3 Zrotation Xrotation Yrotation
									JOINT LFingers
									{
OFFSET 0 -0.707260 0.000000
CHANNELS 3 Zrotation Xrotation Yrotation
										End Site
										{
OFFSET 0 -0.570220 0.000000
										}
									}
								}
								JOINT LThumb
								{
OFFSET 0 0.000000 0.000000
CHANNELS 3 Zrotation Xrotation Yrotation
									End Site
									{
OFFSET 0 -0.578920 0.578920
									}
								}
							}
						}
					}
				}
				JOINT RightCollar
				{
					OFFSET 0 0 0
					CHANNELS 3 Zrotation Yrotation Xrotation
					JOINT RightShoulder
					{
						OFFSET -2.80694 1.55459 -0.32496
CHANNELS 3 Zrotation Xrotation Yrotation
						JOINT RightElbow
						{
OFFSET 0 -4.719250 -0.000000
CHANNELS 3 Zrotation Xrotation Yrotation
							JOINT RightWrist
							{
OFFSET 0 -3.569900 0.000000
CHANNELS 3 Zrotation Xrotation Yrotation
								JOINT rhand
								{
									OFFSET 0 0 0
CHANNELS 3 Zrotation Xrotation Yrotation
									JOINT RFingers
									{
OFFSET 0 -0.507760 0.000000
CHANNELS 3 Zrotation Xrotation Yrotation
										End Site
										{
OFFSET 0 -0.409370 0.000000
										}
									}
								}
								JOINT RThumb
								{
OFFSET 0 0.000000 0.000000
CHANNELS 3 Zrotation Xrotation Yrotation
									End Site
									{
OFFSET 0 -0.415620 0.415620
									}
								}
							}
						}
					}
				}
			}
		}
	}
}
MOTION
Frames: 6
Frame Time: 0.008333333333333333
2.427135 18.023736 18.613728 -179.213743 0.442521 -146.114925 0.000000 0.000000 0.000000 -1.094098 -20.217705 -30.929522 1.031189 6.457442 18.118242 0.192059 17.000492 13.778797 4.313216 -12.550772 -37.732234 0.000000 0.000000 0.000000 7.646513 21.325455 -56.215709 -3.480162 -11.432674 33.755579 -1.042279 2.066525 -18.713786 -1.539596 7.831975 -22.205320 0.251118 -0.408964 -18.115587 1.504317 -0.718986 1.710475 1.326559 -0.356039 12.141645 0.862815 -4.268501 -3.249658 0.757017 -4.853798 20.166338 -0.169615 -1.758241 6.660326 0.000000 0.000000 0.000000 9.291935 0.248948 -25.969337 20.634487 -31.399280 5.858395 22.928710 -7.595240 13.968183 0.000000 0.000000 0.000000 -7.125000 0.000000 0.000000 -3.073259 14.881155 -2.184093 0.000000 0.000000 0.000000 -7.969243 3.218668 13.937816 -30.412982 -41.244668 -11.680978 -14.498743 4.456206 52.819370 0.000000 0.000000 0.000000 7.125000 0.000000 0.000000 65.049470 76.640612 -52.072199
2.454038 18.063227 18.595184 -179.584452 0.347954 -146.460730 0.000000 0.000000 0.000000 -1.645690 -20.438789 -30.905808 1.113407 6.699941 18.830838 0.246872 15.575609 13.420749 4.242233 -12.465810 -37.415599 0.000000 0.000000 0.000000 7.708328 20.902665 -55.223970 -3.302595 -11.166339 32.846574 -1.013213 1.939941 -18.471923 -1.558255 7.877892 -22.343894 -0.106242 -0.497521 -17.744037 1.437060 -0.758832 1.795257 1.444019 -0.400249 12.026491 0.841439 -4.302817 -3.253047 0.834504 -4.908304 20.198600 -0.145095 -1.777492 6.674095 0.000000 0.000000 0.000000 9.335192 0.362344 -25.997942 20.622826 -31.385440 5.852315 22.866236 -7.660666 13.844255 0.000000 0.000000 0.000000 -7.125000 0.000000 0.000000 -3.109173 15.021019 -2.200235 0.000000 0.000000 0.000000 -7.975962 3.181892 13.905971 -30.523335 -41.337620 -11.753827 -14.561944 4.517923 52.778147 0.000000 0.000000 0.000000 7.125000 0.000000 0.000000 64.855291 76.653244 -51.908145
2.480742 18.102659 18.576866 -179.971648 0.250683 -146.812551 0.000000 0.000000 0.000000 -2.213546 -20.706848 -30.873084 1.201753 6.954929 19.582209 0.253018 14.249524 12.731483 3.853890 -11.957138 -35.588402 0.000000 0.000000 0.000000 7.727549 20.495764 -54.222531 -3.125716 -10.895773 31.929352 -0.985980 1.792574 -18.249976 -1.553353 7.865986 -22.307989 -0.472871 -0.583972 -17.365792 1.356656 -0.794334 1.884031 1.553752 -0.442406 11.911831 0.823230 -4.348416 -3.239707 0.946874 -4.987404 20.196183 -0.111120 -1.807268 6.674716 0.000000 0.000000 0.000000 9.396857 0.450281 -26.026341 20.598864 -31.357030 5.839817 22.796428 -7.676886 13.622910 0.000000 0.000000 0.000000 -7.125000 0.000000 0.000000 -3.144730 15.266170 -2.209094 0.000000 0.000000 0.000000 -7.955343 3.138506 13.847666 -30.640078 -41.435785 -11.830973 -14.570409 4.551004 52.802405 0.000000 0.000000 0.000000 7.125000 0.000000 0.000000 64.950660 76.663950 -52.006255
2.506618 18.141322 18.567412 -180.643107 0.467817 -147.439771 0.000000 0.000000 0.000000 -3.356845 -21.023367 -30.485238 1.308775 7.242481 20.437653 0.205325 13.516434 11.823317 2.857246 -10.345333 -30.216062 0.000000 0.000000 0.000000 7.318129 20.147429 -53.094443 -2.985182 -10.668822 31.173172 -0.965012 1.714883 -18.067506 -1.474814 7.671820 -21.722704 -1.242080 -0.683660 -16.607188 1.181459 -0.767488 2.034503 1.805913 -0.478948 11.646883 0.780082 -4.345022 -3.106869 1.026504 -4.995646 20.046256 -0.075607 -1.814056 6.606782 0.000000 0.000000 0.000000 9.419340 0.550333 -25.951378 20.569169 -31.321942 5.824364 22.741099 -7.575501 13.381293 0.000000 0.000000 0.000000 -7.125000 0.000000 0.000000 -3.170121 15.531179 -2.208852 0.000000 0.000000 0.000000 -7.965161 3.102448 13.793852 -30.760189 -41.536019 -11.910542 -14.373153 4.450346 52.705807 0.000000 0.000000 0.000000 7.125000 0.000000 0.000000 64.642504 76.557049 -51.613197
2.531473 18.178101 18.560365 -181.339314 0.801674 -148.052007 0.000000 0.000000 0.000000 -4.575091 -21.287733 -30.113875 1.422040 7.537525 21.319638 0.152886 12.821351 10.844335 2.121772 -9.102181 -26.124688 0.000000 0.000000 0.000000 6.816369 19.864642 -52.037398 -2.856182 -10.457402 30.471983 -0.943295 1.697360 -17.861651 -1.386240 7.446686 -21.047101 -2.082036 -0.757216 -15.850969 0.995863 -0.696799 2.168605 2.097943 -0.496396 11.362524 0.711778 -4.331139 -2.980548 1.071963 -4.975144 19.953136 -0.045294 -1.808106 6.557852 0.000000 0.000000 0.000000 9.423592 0.700063 -25.910267 20.576665 -31.330810 5.828255 22.602536 -7.522022 13.222753 0.000000 0.000000 0.000000 -7.125000 0.000000 0.000000 -3.257201 15.715813 -2.256811 0.000000 0.000000 0.000000 -7.994504 3.095226 13.749007 -30.886612 -41.641203 -11.994425 -14.226414 4.364809 52.549791 0.000000 0.000000 0.000000 7.125000 0.000000 0.000000 64.080852 76.449536 -50.991572
2.554623 18.211735 18.557335 -182.076828 1.330357 -148.639230 0.000000 0.000000 0.000000 -5.918433 -21.465052 -29.770025 1.545727 7.845075 22.245925 0.092528 12.189707 9.747154 1.822221 -8.474355 -24.171397 0.000000 0.000000 0.000000 6.160484 19.691263 -51.098931 -2.746434 -10.271902 29.862580 -0.920327 1.780262 -17.616762 -1.280915 7.169860 -20.220746 -3.040077 -0.787153 -15.098729 0.792910 -0.552933 2.275384 2.456519 -0.481973 11.045762 0.601484 -4.299748 -2.865103 1.060389 -4.906665 19.954833 -0.023660 -1.780896 6.540641 0.000000 0.000000 0.000000 9.397412 0.932710 -25.925660 20.646235 -31.413046 5.864433 22.325044 -7.548505 13.202876 0.000000 0.000000 0.000000 -7.125000 0.000000 0.000000 -3.447246 15.766293 -2.385224 0.000000 0.000000 0.000000 -8.056438 3.136131 13.719130 -31.023570 -41.754648 -12.085508 -14.163995 4.304511 52.294601 0.000000 0.000000 0.000000 7.125000 0.000000 0.000000 63.096085 76.341000 -49.988444
